<?xml version="1.0" standalone="no"?>
<!DOCTYPE svg PUBLIC "-//W3C//DTD SVG 20010904//EN"
 "http://www.w3.org/TR/2001/REC-SVG-20010904/DTD/svg10.dtd">
<svg version="1.0" xmlns="http://www.w3.org/2000/svg"
 width="300.000000pt" height="39.000000pt" viewBox="0 0 300.000000 39.000000"
 preserveAspectRatio="xMidYMid meet">
<metadata>
Created by potrace 1.10, written by Peter Selinger 2001-2011
</metadata>
<g transform="translate(0.000000,39.000000) scale(0.100000,-0.100000)"
fill="#000000" stroke="none">
<path d="M2253 375 c-24 -17 -35 -50 -53 -163 -11 -66 -14 -73 -33 -70 -21 3
-22 8 -22 116 0 110 0 112 -22 112 -23 0 -23 -2 -23 -116 0 -114 0 -115 -22
-112 -21 3 -25 13 -43 116 -18 103 -21 112 -42 112 -19 0 -21 -3 -13 -27 5
-16 14 -62 21 -103 15 -95 23 -116 49 -130 17 -9 29 -9 51 0 23 10 32 10 44 0
19 -16 62 -5 73 18 5 9 17 62 26 117 17 101 36 139 57 118 7 -7 10 -55 7 -137
-3 -120 -2 -126 17 -126 19 0 20 5 16 120 -3 115 -2 120 17 120 32 0 69 -17
76 -35 10 -28 -12 -55 -44 -55 -30 0 -39 -17 -20 -36 5 -5 24 -52 43 -103 26
-71 40 -97 56 -103 26 -9 26 -10 -24 122 l-33 85 24 13 c27 14 39 50 30 88 -8
32 -58 54 -121 54 -25 0 -45 5 -45 10 0 15 -22 12 -47 -5z"/>
<path d="M725 241 l0 -139 50 5 c69 7 72 8 95 45 53 88 -4 199 -115 222 l-30
6 0 -139z m75 82 c40 -28 49 -45 50 -97 0 -58 -20 -86 -62 -86 l-28 0 0 100
c0 55 3 100 8 100 4 0 19 -8 32 -17z"/>
<path d="M1387 360 c-19 -15 -27 -31 -27 -52 0 -30 17 -50 99 -119 17 -15 31
-31 31 -37 0 -24 -53 -71 -105 -93 -30 -13 -55 -28 -55 -32 -1 -35 120 12 165
64 37 45 34 85 -12 123 -98 83 -106 97 -70 120 12 8 23 7 38 -2 16 -10 24 -11
35 -1 12 10 12 14 -4 25 -36 25 -66 26 -95 4z"/>
<path d="M1672 368 c-20 -10 -23 -18 -21 -57 3 -40 0 -47 -26 -63 -17 -10 -33
-18 -37 -18 -4 0 -4 32 -1 70 6 69 5 70 -18 70 l-24 0 -1 -152 c-1 -84 -3
-164 -5 -178 -3 -17 1 -25 11 -25 22 0 42 72 37 128 -4 45 -2 49 24 63 16 8
32 13 36 12 4 -2 6 -29 4 -60 -3 -55 -2 -58 21 -58 l23 0 0 140 c0 77 0 140 0
139 0 0 -10 -5 -23 -11z"/>
<path d="M76 348 c-7 -13 -25 -88 -39 -168 -14 -80 -29 -153 -33 -164 -7 -17
-5 -17 23 -3 28 15 31 22 37 84 4 37 14 106 24 153 15 73 20 85 37 85 19 0 20
-7 20 -118 0 -115 0 -117 23 -117 22 0 22 2 22 115 0 97 3 117 16 122 9 3 19
0 24 -6 9 -15 50 -246 50 -282 0 -16 9 -28 25 -36 14 -6 25 -9 25 -7 0 2 -14
80 -31 172 -21 116 -35 171 -46 180 -21 15 -55 16 -70 1 -8 -8 -17 -8 -31 0
-32 17 -60 13 -76 -11z"/>
<path d="M363 364 c-7 -3 -10 -16 -7 -32 3 -15 -2 -47 -10 -71 -37 -102 -12
-151 78 -151 30 0 60 -2 68 -5 10 -4 13 21 13 130 0 128 -1 135 -20 135 -19 0
-20 -6 -17 -115 l4 -115 -40 0 c-27 0 -45 6 -57 20 -18 20 -18 23 5 89 15 44
21 77 16 94 -6 27 -11 30 -33 21z"/>
<path d="M535 235 c0 -128 1 -135 20 -135 19 0 20 6 17 120 -4 115 -3 120 17
120 11 0 32 -4 46 -10 22 -8 26 -15 23 -42 -3 -29 -7 -33 -35 -36 -33 -3 -42
-19 -23 -38 13 -13 70 -181 64 -187 -3 -3 9 -9 25 -15 17 -6 31 -10 31 -9 0 1
-18 49 -40 107 -23 60 -36 106 -30 108 40 14 59 71 36 108 -21 30 -54 44 -109
44 l-42 0 0 -135z"/>
<path d="M915 238 l0 -134 70 1 c60 0 70 3 73 18 3 17 -2 19 -50 15 l-53 -3
-3 32 c-3 27 2 34 28 48 17 9 35 13 40 10 6 -4 10 7 10 24 l0 31 -32 -20 c-18
-11 -36 -20 -40 -20 -5 0 -8 23 -8 51 l0 51 55 -4 c47 -4 55 -2 53 11 -3 12
-19 17 -73 19 l-70 3 0 -133z"/>
<path d="M1090 236 c0 -129 1 -136 20 -136 19 0 20 7 20 121 l0 122 32 -7 c38
-8 58 -23 58 -45 0 -25 -20 -41 -52 -41 -30 0 -37 -17 -15 -38 6 -7 26 -54 43
-104 23 -67 37 -94 53 -100 11 -4 21 -4 21 1 0 5 -16 52 -36 105 l-37 96 27
21 c20 16 26 29 26 58 0 53 -26 74 -100 79 l-60 4 0 -136z"/>
<path d="M1725 238 l0 -133 70 0 c64 1 70 2 73 23 2 14 -1 21 -10 18 -7 -2
-32 -7 -55 -10 l-43 -6 0 38 c0 33 4 39 31 49 18 7 36 10 40 7 5 -3 9 9 9 25
l0 31 -32 -20 c-18 -11 -36 -20 -40 -20 -5 0 -8 23 -8 51 l0 51 55 -4 c47 -4
55 -2 53 11 -3 12 -19 17 -73 19 l-70 3 0 -133z"/>
<path d="M2532 348 c-59 -64 -54 -187 9 -232 33 -23 54 -20 90 12 74 66 38
242 -49 242 -17 0 -37 -9 -50 -22z m85 -34 c22 -35 22 -114 -1 -148 -36 -55
-86 -13 -86 72 0 88 50 132 87 76z"/>
<path d="M2676 354 c-9 -24 -8 -24 25 -17 l30 6 -3 -170 -3 -170 23 10 c21 10
22 14 22 170 l0 160 31 -7 c26 -5 30 -3 25 10 -3 9 -6 18 -6 20 0 2 -31 4 -69
4 -54 0 -70 -4 -75 -16z"/>
<path d="M2850 237 l0 -132 66 1 c53 1 69 5 76 19 10 16 6 17 -46 13 l-56 -5
0 37 c0 30 5 39 26 49 14 6 30 9 35 6 5 -4 9 8 9 25 l0 31 -29 -20 c-16 -12
-32 -21 -35 -21 -3 0 -6 23 -6 51 l0 51 54 -4 c48 -4 53 -3 48 14 -4 15 -15
18 -73 18 l-69 0 0 -133z"/>
<path d="M1279 148 c-1 -2 -3 -20 -4 -41 -2 -33 0 -36 14 -25 26 21 30 31 20
50 -8 15 -26 24 -30 16z"/>
</g>
</svg>
